<?xml version="1.0" encoding="UTF-8"?>
<svg version="1.1" xmlns="http://www.w3.org/2000/svg" width="404" height="330">
<path d="M0 0 C1.02404582 -0.00226556 2.04809163 -0.00453111 3.10316914 -0.00686532 C6.52136162 -0.01317592 9.93951415 -0.01237785 13.35771179 -0.0115509 C15.81391959 -0.01454421 18.27012691 -0.01794714 20.72633362 -0.02172852 C26.69800919 -0.02963876 32.66966916 -0.03278239 38.64134852 -0.03334089 C43.49804427 -0.03381703 48.35473678 -0.03587664 53.2114315 -0.03904152 C66.9981653 -0.04784209 80.78489133 -0.05246179 94.57162795 -0.05171105 C95.31395066 -0.05167109 96.05627336 -0.05163113 96.8210907 -0.05158997 C97.56432558 -0.05154909 98.30756046 -0.0515082 99.07331761 -0.05146609 C111.11576329 -0.05105972 123.15817768 -0.06062849 135.20061431 -0.07472833 C147.58246879 -0.08911056 159.96430804 -0.09599751 172.34617108 -0.09513456 C179.29091698 -0.09480324 186.23563008 -0.09752169 193.18036842 -0.10831261 C199.71308012 -0.11839874 206.24573453 -0.11806342 212.77845383 -0.11079597 C215.17171391 -0.10975185 217.56497832 -0.1121028 219.95823097 -0.11815643 C223.23395347 -0.12590354 226.50943865 -0.12121349 229.78515625 -0.11352539 C230.72428606 -0.11866895 231.66341587 -0.12381252 232.63100415 -0.12911195 C243.38225166 -0.07363929 252.99682551 1.27979386 261.58305359 8.13371277 C263.90077441 10.63235272 265.77263408 13.25267973 267.58305359 16.13371277 C268.44930359 17.37121277 268.44930359 17.37121277 269.33305359 18.63371277 C273.22716433 26.42193425 273.88144258 34.82405993 271.20805359 43.07121277 C266.14734713 55.84771465 258.33810424 67.65573733 251.35258484 79.45011902 C243.90363031 92.02966102 236.50283281 104.64260836 229.33305359 117.38371277 C228.97461365 118.02059021 228.61617371 118.65746765 228.24687195 119.31364441 C226.6206327 122.22070217 225.03718152 125.13642866 223.58305359 128.13371277 C222.92305359 128.13371277 222.26305359 128.13371277 221.58305359 128.13371277 C221.27367859 129.30933777 221.27367859 129.30933777 220.95805359 130.50871277 C219.3888232 134.64577471 217.27031014 138.12783498 214.92289734 141.86418152 C213.45401792 144.17085778 213.45401792 144.17085778 212.58305359 147.13371277 C211.92305359 147.13371277 211.26305359 147.13371277 210.58305359 147.13371277 C210.42836609 147.93808777 210.42836609 147.93808777 210.27055359 148.75871277 C209.40212662 151.75873321 208.02685062 154.37166627 206.58305359 157.13371277 C205.92305359 157.13371277 205.26305359 157.13371277 204.58305359 157.13371277 C204.47090515 157.85945496 204.35875671 158.58519714 204.24320984 159.33293152 C203.55343971 162.2593527 202.52794545 164.35659086 201.02055359 166.94621277 C200.56551453 167.73640808 200.11047546 168.52660339 199.64164734 169.34074402 C199.2923114 169.93242371 198.94297546 170.52410339 198.58305359 171.13371277 C197.92305359 171.13371277 197.26305359 171.13371277 196.58305359 171.13371277 C196.47863953 171.85429871 196.37422546 172.57488464 196.26664734 173.31730652 C195.51446438 176.41630029 194.34490809 178.50799184 192.64555359 181.19621277 C190.80885802 184.1249976 189.07479621 187.0133043 187.58305359 190.13371277 C186.92305359 190.13371277 186.26305359 190.13371277 185.58305359 190.13371277 C185.46832703 190.87105652 185.35360046 191.60840027 185.23539734 192.36808777 C184.56860677 195.19496036 183.69349409 196.94559685 182.14555359 199.38371277 C179.38692678 203.83543044 176.67750407 208.308312 174.02055359 212.82121277 C173.60176941 213.53164734 173.18298523 214.24208191 172.75151062 214.9740448 C169.10104707 221.19449927 165.55613474 227.47243508 162.02055359 233.75871277 C157.62760497 241.56711809 153.16893275 249.3207554 148.49711609 256.96574402 C147.29024315 258.96324188 146.11370346 260.97968775 144.98149109 263.02043152 C140.64288587 270.78119861 134.88712064 277.11886207 126.45414734 280.46574402 C116.15439075 282.86201392 105.37823522 282.46438613 96.14945984 277.04777527 C91.32186685 273.44728735 86.40508468 269.36279621 84.87602234 263.35636902 C84.77934265 262.62289246 84.68266296 261.88941589 84.58305359 261.13371277 C83.92305359 261.13371277 83.26305359 261.13371277 82.58305359 261.13371277 C82.15895203 260.32289246 81.73485046 259.51207214 81.29789734 258.67668152 C77.82880147 252.1273335 74.18153103 245.83653808 70.13774109 239.61808777 C68.44124396 236.9071024 67.0311818 234.14673885 65.66142273 231.26164246 C64.50407968 228.97787475 63.21896186 226.81825954 61.88383484 224.63371277 C58.4114949 218.88862599 55.1168966 213.05051221 51.83305359 207.19621277 C50.69349883 205.16566386 49.55292054 203.13568892 48.41117859 201.10636902 C47.91521179 200.22215271 47.419245 199.3379364 46.9082489 198.42692566 C45.86570241 196.62282854 44.73886428 194.8674288 43.58305359 193.13371277 C43.58305359 192.14371277 43.58305359 191.15371277 43.58305359 190.13371277 C42.92305359 190.13371277 42.26305359 190.13371277 41.58305359 190.13371277 C40.99910828 189.02189636 40.99910828 189.02189636 40.40336609 187.88761902 C36.92264948 181.3352101 33.30484762 174.890966 29.52055359 168.50871277 C18.58305359 150.03979742 18.58305359 150.03979742 18.58305359 147.13371277 C17.92305359 147.13371277 17.26305359 147.13371277 16.58305359 147.13371277 C7.58305359 130.76478073 7.58305359 130.76478073 7.58305359 128.13371277 C6.92305359 128.13371277 6.26305359 128.13371277 5.58305359 128.13371277 C5.25434265 127.52527527 4.92563171 126.91683777 4.58695984 126.28996277 C-1.89026519 114.35361313 -8.55593275 102.53715254 -15.47016907 90.84880066 C-19.92077848 83.31114734 -24.25622215 75.70891646 -28.58100891 68.09855652 C-30.30087859 65.0752491 -32.03923719 62.0656929 -33.81538391 59.07511902 C-39.98740997 48.64748238 -45.31122756 39.01215411 -42.94429016 26.66886902 C-40.67450399 17.84796347 -36.04659928 10.26905604 -28.41694641 5.13371277 C-19.11550773 0.5143114 -10.20850368 -0.01671447 0 0 Z M-28.41694641 13.13371277 C-28.41694641 13.79371277 -28.41694641 14.45371277 -28.41694641 15.13371277 C-29.07694641 15.13371277 -29.73694641 15.13371277 -30.41694641 15.13371277 C-31.74863883 16.81877958 -31.74863883 16.81877958 -32.97944641 18.94621277 C-33.41386047 19.65390808 -33.84827454 20.36160339 -34.29585266 21.09074402 C-37.66094012 27.22294172 -37.10079537 34.37489486 -36.41694641 41.13371277 C-34.9579984 45.49440608 -32.79904023 49.21445585 -30.41694641 53.13371277 C-29.16626243 55.36249576 -27.91629638 57.59168172 -26.66694641 59.82121277 C-25.26074906 62.2648422 -23.83892514 64.69924151 -22.41694641 67.13371277 C-21.9980011 67.85381531 -21.57905579 68.57391785 -21.14741516 69.31584167 C-19.82351943 71.59018909 -18.49603984 73.86239932 -17.16694641 76.13371277 C-16.75476868 76.83971619 -16.34259094 77.5457196 -15.91792297 78.27311707 C-13.53938198 82.31885518 -11.05937449 86.25491926 -8.41694641 90.13371277 C-7.92194641 88.64871277 -7.92194641 88.64871277 -7.41694641 87.13371277 C-6.75694641 87.13371277 -6.09694641 87.13371277 -5.41694641 87.13371277 C-5.03022766 86.39765808 -4.64350891 85.66160339 -4.24507141 84.90324402 C2.78337496 71.73360564 2.78337496 71.73360564 7.58305359 70.13371277 C12.68568032 69.75574042 15.37531969 70.24840952 19.58305359 73.13371277 C20.24305359 73.13371277 20.90305359 73.13371277 21.58305359 73.13371277 C21.69004578 73.69574402 21.79703796 74.25777527 21.90727234 74.83683777 C22.69737786 77.52228313 23.90592981 79.51539952 25.39555359 81.88371277 C28.05522483 86.20327522 30.38312199 90.56462406 32.58305359 95.13371277 C33.24305359 95.13371277 33.90305359 95.13371277 34.58305359 95.13371277 C34.68617859 95.83496277 34.78930359 96.53621277 34.89555359 97.25871277 C35.67664362 100.52508924 37.00364102 103.18089797 38.58305359 106.13371277 C42.02740859 102.11007988 44.55310352 97.87824617 47.08305359 93.25871277 C47.84325554 91.88619799 48.60367063 90.51380123 49.36430359 89.14152527 C49.73039734 88.47540222 50.09649109 87.80927917 50.47367859 87.12297058 C51.57525145 85.14770305 52.71754729 83.20018408 53.86430359 81.25090027 C55.744002 78.43508239 55.744002 78.43508239 55.58305359 76.13371277 C56.24305359 76.13371277 56.90305359 76.13371277 57.58305359 76.13371277 C57.99555359 75.27390808 58.40805359 74.41410339 58.83305359 73.52824402 C62.39566679 66.23602012 66.18722706 59.2592279 70.53227234 52.39152527 C71.9689946 50.10918933 73.36461892 47.82592338 74.72758484 45.50090027 C75.080224 44.90607849 75.43286316 44.31125671 75.79618835 43.69841003 C76.77721011 42.04058259 77.75067649 40.37829099 78.72367859 38.71574402 C80.59555156 36.11635739 81.59785949 35.14676057 84.58305359 34.13371277 C88.84872434 33.57732093 91.47616631 34.18836811 95.01322937 36.65763855 C98.27185839 39.72166205 100.06994708 43.81952164 102.08305359 47.75871277 C102.98726268 49.48113988 103.89351649 51.20249512 104.80180359 52.92277527 C105.48569153 54.22311707 105.48569153 54.22311707 106.18339539 55.54972839 C108.00502649 58.91273966 109.97227112 62.17412386 111.95854187 65.44181824 C115.13849272 70.71115068 118.19458782 76.05325577 121.27055359 81.38371277 C121.9404426 82.53998181 122.61036433 83.69623189 123.28031921 84.85246277 C123.92033875 85.96105652 124.56035828 87.06965027 125.21977234 88.21183777 C126.0815509 89.70312195 126.0815509 89.70312195 126.96073914 91.22453308 C128.59406916 94.1534662 130.10654159 97.12311514 131.58305359 100.13371277 C132.24305359 100.13371277 132.90305359 100.13371277 133.58305359 100.13371277 C133.69133484 100.69703308 133.79961609 101.26035339 133.91117859 101.84074402 C134.68998694 104.4986539 135.86604876 106.47324885 137.33305359 108.82121277 C139.75195077 112.7605596 142.08123475 116.72094801 144.28227234 120.78605652 C145.22519838 122.48785397 146.2131673 124.16494399 147.22758484 125.82511902 C150.68241474 131.64250239 153.14515224 136.32155324 151.58305359 143.13371277 C149.3407414 149.52950619 146.84951802 154.1123817 140.58305359 157.13371277 C131.42628246 161.15545571 121.90411069 163.90631698 112.32914734 166.72746277 C98.08180616 170.92892589 84.80015861 176.35855809 71.58305359 183.13371277 C69.58398642 184.13557627 67.58423283 185.13607474 65.58305359 186.13371277 C65.58305359 186.79371277 65.58305359 187.45371277 65.58305359 188.13371277 C64.59305359 188.13371277 63.60305359 188.13371277 62.58305359 188.13371277 C62.58305359 188.79371277 62.58305359 189.45371277 62.58305359 190.13371277 C62.02617859 190.33996277 61.46930359 190.54621277 60.89555359 190.75871277 C57.65804057 192.68372051 55.90074218 195.17222179 53.58305359 198.13371277 C54.09094421 198.94453308 54.59883484 199.75535339 55.12211609 200.59074402 C58.96301531 206.76926917 62.64712105 212.97013801 66.08695984 219.38371277 C69.76335625 226.14137092 73.73264703 232.73630857 77.70805359 239.32121277 C79.52364394 242.33127045 81.27484975 245.36033907 82.95805359 248.44621277 C91.18109967 264.45222945 91.18109967 264.45222945 105.37992859 274.65715027 C114.04600683 276.53172748 121.86779169 275.84494338 129.59477234 271.52043152 C131.50799991 270.18605865 133.07823188 268.91561276 134.58305359 267.13371277 C134.58305359 266.47371277 134.58305359 265.81371277 134.58305359 265.13371277 C135.24305359 265.13371277 135.90305359 265.13371277 136.58305359 265.13371277 C135.06655538 260.98183659 132.49835191 259.49842129 128.83305359 257.19621277 C125.38269632 254.98285409 122.04787291 252.83154009 118.95805359 250.13371277 C116.84557245 247.91900085 116.84557245 247.91900085 114.58305359 248.13371277 C114.58305359 247.47371277 114.58305359 246.81371277 114.58305359 246.13371277 C113.92305359 246.13371277 113.26305359 246.13371277 112.58305359 246.13371277 C111.92305359 244.81371277 111.26305359 243.49371277 110.58305359 242.13371277 C109.92305359 242.13371277 109.26305359 242.13371277 108.58305359 242.13371277 C108.58305359 241.47371277 108.58305359 240.81371277 108.58305359 240.13371277 C107.92305359 240.13371277 107.26305359 240.13371277 106.58305359 240.13371277 C106.58305359 239.47371277 106.58305359 238.81371277 106.58305359 238.13371277 C104.93761579 236.44608426 103.27016782 234.77967787 101.58305359 233.13371277 C101.25305359 232.47371277 100.92305359 231.81371277 100.58305359 231.13371277 C99.92305359 231.13371277 99.26305359 231.13371277 98.58305359 231.13371277 C97.90743611 229.47065437 97.24372078 227.80276672 96.58305359 226.13371277 C95.77867859 224.33933777 95.77867859 224.33933777 94.95805359 222.50871277 C92.60304367 216.10791657 92.35242393 209.11779385 95.14555359 202.82121277 C97.19317646 199.22124043 99.90587766 196.83209299 103.19242859 194.36027527 C103.88078796 193.75312683 103.88078796 193.75312683 104.58305359 193.13371277 C104.58305359 192.47371277 104.58305359 191.81371277 104.58305359 191.13371277 C105.11930359 191.05121277 105.65555359 190.96871277 106.20805359 190.88371277 C108.75408978 190.20312314 108.75408978 190.20312314 111.27055359 188.32121277 C115.19499116 185.72960305 119.25603824 183.94144362 123.58305359 182.13371277 C123.58305359 181.47371277 123.58305359 180.81371277 123.58305359 180.13371277 C124.26367859 180.05121277 124.94430359 179.96871277 125.64555359 179.88371277 C128.27031344 179.21356132 129.86109542 178.49257151 132.14555359 177.13371277 C134.82404253 175.5753192 136.59555572 174.61171243 139.58305359 174.13371277 C139.58305359 173.47371277 139.58305359 172.81371277 139.58305359 172.13371277 C140.15153015 172.02543152 140.72000671 171.91715027 141.30570984 171.80558777 C148.65356218 169.63778228 155.62456994 163.51040871 159.39555359 157.00871277 C160.77393367 154.19001402 160.77393367 154.19001402 160.58305359 151.13371277 C161.57305359 151.46371277 162.56305359 151.79371277 163.58305359 152.13371277 C163.64492859 151.47371277 163.70680359 150.81371277 163.77055359 150.13371277 C164.70007014 146.70165166 166.20071023 144.37898931 168.13383484 141.42668152 C169.70071189 138.94755261 171.08052455 136.41008101 172.45805359 133.82121277 C175.0936151 128.91784252 178.01777702 124.26135348 181.03617859 119.58683777 C184.31843333 114.70085857 184.31843333 114.70085857 185.58305359 109.13371277 C194.02566424 105.4090316 194.02566424 105.4090316 198.48539734 106.67277527 C203.33425551 108.63611661 203.33425551 108.63611661 204.58305359 111.13371277 C205.24305359 111.13371277 205.90305359 111.13371277 206.58305359 111.13371277 C206.78930359 111.93808777 206.99555359 112.74246277 207.20805359 113.57121277 C209.03282274 118.29902376 211.86062111 124.77249653 216.58305359 127.13371277 C217.92163883 124.84497104 219.25406373 122.55301621 220.58305359 120.25871277 C220.96461609 119.60773621 221.34617859 118.95675964 221.73930359 118.28605652 C223.85856515 114.93021076 223.85856515 114.93021076 224.58305359 111.13371277 C225.24305359 111.13371277 225.90305359 111.13371277 226.58305359 111.13371277 C226.87510681 110.5271283 227.16716003 109.92054382 227.46806335 109.295578 C230.52137677 103.05890818 233.89360657 97.11419668 237.52055359 91.19621277 C241.11106167 85.2750145 244.63935008 79.35666039 247.88774109 73.23918152 C249.37778755 70.50971853 250.91049616 67.81451218 252.46586609 65.12199402 C252.99695984 64.20152283 253.52805359 63.28105164 254.07524109 62.33268738 C255.13675386 60.49678454 256.20167477 58.66284659 257.27055359 56.83122253 C263.44309553 46.14021198 268.0597724 37.2418214 264.95805359 24.58293152 C262.23867853 17.55383259 256.81919975 11.32545896 249.89555359 8.19621277 C243.61658781 6.18220488 237.94847477 5.9874063 231.39952087 5.99327087 C229.84680438 5.98881419 229.84680438 5.98881419 228.26271987 5.98426747 C224.78908597 5.97558584 221.31548655 5.97407267 217.84184265 5.97257996 C215.35327582 5.96795143 212.8647097 5.96292672 210.37614441 5.95753479 C203.61158781 5.94441265 196.84704469 5.93792943 190.08247852 5.93352413 C185.85661252 5.930759 181.6307488 5.92652116 177.40488434 5.92201996 C165.69867217 5.90982971 153.99246182 5.89952976 142.28624344 5.89614487 C141.16299305 5.89581552 141.16299305 5.89581552 140.01705073 5.89547952 C138.891155 5.8951521 138.891155 5.8951521 137.7425139 5.89481807 C136.22158702 5.89437461 134.70066015 5.89392804 133.17973328 5.89347839 C132.42530543 5.89325696 131.67087758 5.89303553 130.89358827 5.89280739 C118.67175715 5.88886016 106.44998567 5.87140734 94.22817758 5.84811887 C81.67240567 5.82438765 69.11666367 5.81194222 56.56086898 5.81077695 C49.51440032 5.80986121 42.4680094 5.80413433 35.42156219 5.78595734 C28.79285005 5.76891783 22.16425923 5.76731696 15.53552246 5.77609634 C13.10433304 5.77686717 10.67313572 5.772518 8.24196625 5.76263809 C4.91930889 5.74992852 1.59717476 5.75579049 -1.72547913 5.76622009 C-2.68415382 5.75816369 -3.64282852 5.75010728 -4.63055396 5.74180675 C-13.72816225 5.80844814 -20.73506153 8.39382635 -28.41694641 13.13371277 Z M18.58305359 83.13371277 C17.74486201 84.75621218 16.91264199 86.38179773 16.08305359 88.00871277 C15.61899109 88.91363464 15.15492859 89.81855652 14.67680359 90.75090027 C13.4439977 92.99968136 13.4439977 92.99968136 13.58305359 95.13371277 C17.54305359 95.13371277 21.50305359 95.13371277 25.58305359 95.13371277 C25.01715515 96.25390808 24.45125671 97.37410339 23.86820984 98.52824402 C23.12721853 100.00084699 22.38633893 101.47350618 21.64555359 102.94621277 C21.0857782 104.05319519 21.0857782 104.05319519 20.51469421 105.18254089 C19.97812195 106.25085144 19.97812195 106.25085144 19.43070984 107.34074402 C19.10079041 107.99534607 18.77087097 108.64994812 18.43095398 109.3243866 C17.4647168 111.29501898 17.4647168 111.29501898 16.58305359 114.13371277 C17.64266296 114.18269714 18.70227234 114.23168152 19.79399109 114.28215027 C21.18203856 114.35717986 22.5700581 114.43272761 23.95805359 114.50871277 C24.65672546 114.53965027 25.35539734 114.57058777 26.07524109 114.60246277 C31.35649109 114.90715027 31.35649109 114.90715027 33.58305359 117.13371277 C33.58305359 116.14371277 33.58305359 115.15371277 33.58305359 114.13371277 C34.24305359 114.13371277 34.90305359 114.13371277 35.58305359 114.13371277 C36.64011975 110.59802454 36.64011975 110.59802454 35.64945984 107.16886902 C35.15317078 106.51789246 34.65688171 105.86691589 34.14555359 105.19621277 C31.25358533 101.17996646 28.75215158 97.06816543 26.33305359 92.75871277 C24.49607631 89.48723468 22.66632808 86.25862451 20.58305359 83.13371277 C19.92305359 83.13371277 19.26305359 83.13371277 18.58305359 83.13371277 Z M37.58305359 106.13371277 C38.58305359 108.13371277 38.58305359 108.13371277 38.58305359 108.13371277 Z M198.58305359 113.13371277 C197.41397775 115.44502343 196.24769467 117.757669 195.08305359 120.07121277 C194.7491864 120.73056824 194.41531921 121.38992371 194.07133484 122.06925964 C192.34163885 124.96676421 192.34163885 124.96676421 191.58305359 128.13371277 C195.21305359 128.46371277 198.84305359 128.79371277 202.58305359 129.13371277 C199.77801075 135.57492225 196.77176759 141.87390128 193.58305359 148.13371277 C200.17915644 148.89446758 200.17915644 148.89446758 205.89555359 146.25871277 C206.45242859 145.22746277 207.00930359 144.19621277 207.58305359 143.13371277 C208.0948114 142.41699402 208.60656921 141.70027527 209.13383484 140.96183777 C210.83974158 138.30350171 211.9190491 136.22946882 212.58305359 133.13371277 C211.2868065 128.98572209 208.98946846 125.71932429 206.58305359 122.13371277 C205.84991586 120.6036862 205.13808526 119.06307088 204.45805359 117.50871277 C203.0122881 114.01316285 203.0122881 114.01316285 200.46586609 113.42277527 C199.84453796 113.32738464 199.22320984 113.23199402 198.58305359 113.13371277 Z M30.58305359 117.13371277 C30.25305359 118.78371277 29.92305359 120.43371277 29.58305359 122.13371277 C30.57305359 120.81371277 31.56305359 119.49371277 32.58305359 118.13371277 C31.92305359 117.80371277 31.26305359 117.47371277 30.58305359 117.13371277 Z M28.58305359 122.13371277 C28.58305359 125.13371277 28.58305359 125.13371277 28.58305359 125.13371277 Z M26.58305359 125.13371277 C27.58305359 127.13371277 27.58305359 127.13371277 27.58305359 127.13371277 Z M25.58305359 127.13371277 C25.58305359 130.13371277 25.58305359 130.13371277 25.58305359 130.13371277 Z M23.58305359 130.13371277 C23.25305359 131.12371277 22.92305359 132.11371277 22.58305359 133.13371277 C23.24305359 133.13371277 23.90305359 133.13371277 24.58305359 133.13371277 C24.25305359 132.14371277 23.92305359 131.15371277 23.58305359 130.13371277 Z M21.58305359 133.13371277 C22.58305359 135.13371277 22.58305359 135.13371277 22.58305359 135.13371277 Z M19.58305359 136.13371277 C19.91305359 137.12371277 20.24305359 138.11371277 20.58305359 139.13371277 C20.91305359 138.14371277 21.24305359 137.15371277 21.58305359 136.13371277 C20.92305359 136.13371277 20.26305359 136.13371277 19.58305359 136.13371277 Z M163.58305359 152.13371277 C163.58305359 153.12371277 163.58305359 154.11371277 163.58305359 155.13371277 C164.24305359 154.80371277 164.90305359 154.47371277 165.58305359 154.13371277 C164.92305359 153.47371277 164.26305359 152.81371277 163.58305359 152.13371277 Z M165.58305359 155.13371277 C166.58305359 158.13371277 166.58305359 158.13371277 166.58305359 158.13371277 Z M167.58305359 159.13371277 C168.58305359 161.13371277 168.58305359 161.13371277 168.58305359 161.13371277 Z M169.58305359 163.13371277 C169.91305359 164.12371277 170.24305359 165.11371277 170.58305359 166.13371277 C170.58305359 165.14371277 170.58305359 164.15371277 170.58305359 163.13371277 C170.25305359 163.13371277 169.92305359 163.13371277 169.58305359 163.13371277 Z M171.58305359 166.13371277 C171.93092067 168.10908022 171.93092067 168.10908022 172.58305359 170.13371277 C173.24305359 170.46371277 173.90305359 170.79371277 174.58305359 171.13371277 C173.92305359 169.48371277 173.26305359 167.83371277 172.58305359 166.13371277 C172.25305359 166.13371277 171.92305359 166.13371277 171.58305359 166.13371277 Z M174.58305359 171.13371277 C174.58305359 172.12371277 174.58305359 173.11371277 174.58305359 174.13371277 C175.24305359 173.80371277 175.90305359 173.47371277 176.58305359 173.13371277 C175.92305359 172.47371277 175.26305359 171.81371277 174.58305359 171.13371277 Z M176.58305359 174.13371277 C177.58305359 176.13371277 177.58305359 176.13371277 177.58305359 176.13371277 Z M177.58305359 177.13371277 C177.91305359 178.12371277 178.24305359 179.11371277 178.58305359 180.13371277 C178.58305359 179.14371277 178.58305359 178.15371277 178.58305359 177.13371277 C178.25305359 177.13371277 177.92305359 177.13371277 177.58305359 177.13371277 Z M179.58305359 180.13371277 C180.58305359 182.13371277 180.58305359 182.13371277 180.58305359 182.13371277 Z M180.58305359 182.13371277 C181.58305359 184.13371277 181.58305359 184.13371277 181.58305359 184.13371277 Z " fill="#060606" transform="translate(87.41694641113281,27.866287231445313)"/>
<path d="M0 0 C0.66 0 1.32 0 2 0 C2.433125 1.175625 2.86625 2.35125 3.3125 3.5625 C6.34154327 13.01815777 6.34154327 13.01815777 13.0625 19.5625 C17.25003906 21.24104941 21.58131903 22.1483268 26 23 C26 23.99 26 24.98 26 26 C25.20335937 26.17015625 24.40671875 26.3403125 23.5859375 26.515625 C15.10768242 28.31950448 15.10768242 28.31950448 8 33 C6.65684245 35.57725529 5.83854084 38.22482911 5 41 C4.44760218 42.50374961 3.88545117 44.00396083 3.3125 45.5 C2.879375 46.655 2.44625 47.81 2 49 C1.34 49 0.68 49 0 49 C-0.30292969 47.96359375 -0.60585937 46.9271875 -0.91796875 45.859375 C-1.34025001 44.4893069 -1.76347727 43.11953013 -2.1875 41.75 C-2.48237305 40.72712891 -2.48237305 40.72712891 -2.78320312 39.68359375 C-4.26607971 34.98401566 -5.75950916 32.52523612 -10 30 C-13.55342653 28.67584099 -13.55342653 28.67584099 -17.3125 27.75 C-19.19388672 27.24726562 -19.19388672 27.24726562 -21.11328125 26.734375 C-22.06589844 26.49203125 -23.01851562 26.2496875 -24 26 C-23.505 24.515 -23.505 24.515 -23 23 C-20.5234375 22.26171875 -20.5234375 22.26171875 -17.375 21.6875 C-11.64288023 20.32595136 -7.31133288 19.10074397 -4 14 C-2.2804376 9.39567919 -1.05947674 4.80383863 0 0 Z " fill="#101010" transform="translate(249,71)"/>
<path d="M0 0 C2.08435456 1.80012439 2.94383431 2.79576112 3.6875 5.5 C5.50781293 8.96726272 7.71110664 9.35713577 11.3203125 10.51953125 C11.87460937 10.67808594 12.42890625 10.83664063 13 11 C12.67 11.99 12.34 12.98 12 14 C10.906875 14.226875 9.81375 14.45375 8.6875 14.6875 C4.62723352 16.1326796 4.340484 16.48588887 2.5625 20.125 C2.01746072 21.40664048 1.4883519 22.69570611 1 24 C-0.5 22.75 -0.5 22.75 -2 21 C-2 19.68 -2 18.36 -2 17 C-2.66 17 -3.32 17 -4 17 C-4 16.34 -4 15.68 -4 15 C-6.31 14.67 -8.62 14.34 -11 14 C-11.33 13.01 -11.66 12.02 -12 11 C-9.36 10.34 -6.72 9.68 -4 9 C-4 8.34 -4 7.68 -4 7 C-3.34 7 -2.68 7 -2 7 C-1.855625 6.030625 -1.71125 5.06125 -1.5625 4.0625 C-1 1 -1 1 0 0 Z " fill="#212121" transform="translate(286,54)"/>
<path d="M0 0 C0.66 0 1.32 0 2 0 C2.33 1.98 2.66 3.96 3 6 C5.31 6.66 7.62 7.32 10 8 C10 8.99 10 9.98 10 11 C7.69 11.66 5.38 12.32 3 13 C2.67 14.98 2.34 16.96 2 19 C1.01 18.67 0.02 18.34 -1 18 C-1.268125 17.195625 -1.53625 16.39125 -1.8125 15.5625 C-2.80353159 12.66973024 -2.80353159 12.66973024 -6.125 11.6875 C-7.548125 11.3471875 -7.548125 11.3471875 -9 11 C-8.67 10.01 -8.34 9.02 -8 8 C-7.21625 7.731875 -6.4325 7.46375 -5.625 7.1875 C-2.07068177 5.57959413 -1.45140066 3.51391738 0 0 Z " fill="#262626" transform="translate(295,101)"/>
<path d="M0 0 C3.96 0 7.92 0 12 0 C12.33 0.66 12.66 1.32 13 2 C12.34 2.66 11.68 3.32 11 4 C11 3.34 11 2.68 11 2 C7.37 2 3.74 2 0 2 C0 1.34 0 0.68 0 0 Z " fill="#505050" transform="translate(278,156)"/>
<path d="M0 0 C1.5625 1.25 1.5625 1.25 3 3 C2.6875 5.1875 2.6875 5.1875 2 7 C2 6.01 2 5.02 2 4 C1.01 4 0.02 4 -1 4 C-1.33 4.99 -1.66 5.98 -2 7 C-1.125 1.125 -1.125 1.125 0 0 Z " fill="#4C4C4C" transform="translate(286,54)"/>
</svg>
